<?xml version="1.0" encoding="UTF-8"?>
<svg id="Layer_2" data-name="Layer 2" xmlns="http://www.w3.org/2000/svg" viewBox="0 0 553.63 749.08">
  <defs>
    <style>
      .cls-1 {
        fill: #3b7f5f;
      }

      .cls-2 {
        fill: #c27740;
      }

      .cls-3 {
        fill: #268156;
      }

      .cls-4 {
        fill: #2c7854;
      }

      .cls-5 {
        fill: #be7944;
      }
    </style>
  </defs>
  <g id="Layer_1-2" data-name="Layer 1">
    <g>
      <g>
        <path class="cls-5" d="M460.19,589.17c18.06-34.84,12.58-83.73-9.11-115.93-33.57-49.83-80.72-1.53-78.44,42.45,1.95,37.58,47.1,25.76,69.98,33.01,18.35,5.81,14.34,13.14,3.06,23.97-14.97,14.36-37.29,27.99-55.1,38.9-17.84,10.93-36.18,21.27-54.91,30.58,2.6-6.4,6.15-12.3,8.76-18.73,18.93-46.53,18.11-97.97,6.74-146.28-14.95-63.55-51.04-119.81-94.51-167.49,6.49-.78,13.35,6.93,19.57,1.52.85-1.25-.1-2.3-.72-3.36-2-3.44-14.68-16.1-18.33-19.68-12.02-11.82-42.72-39.27-56.96-46.04-1.22-.58-2.03-1.28-3.57-.94v46.5c57.23,76.4,133.2,163.48,144.86,262.14,4.99,42.23-12.38,65.26-43.38,91.33-41.3,34.73-93.19,60.4-141.84,83.16l-1.63,3.86c1.84,1.76,44-7.04,50.19-8.3,44.59-9.13,95.54-18.32,135.48-39.52,36.46-19.35,100.84-54.5,119.85-91.15ZM395.61,500.69c-3.09-4.65,6.37-9.92,10.65-10.45,10.68-1.33,22.99,6.97,26.41,16.9-9.13-1.18-31.65,1.7-37.05-6.45Z"/>
        <path class="cls-5" d="M548.18,536.14c-3.88-12.87-10.9-24.44-15.5-36.99,6.04,2.91,14.51-.49,11.47-7.96-.99-2.42-14.48-16.44-17.45-19.57-3.29-3.46-16.23-17.3-19.28-18.71-1.15-.53-2.91-1.08-4.11-.84-2.3.46-3.17,26.57-4.62,30.58l.47,8.51,37.33,89.74c.42,4.61-8.86,11.34-12.34,14.22-75.64,62.57-172.13,94.28-259.83,135.17-7.59,3.54-19.81,8.38-26.34,12.66-3.93,2.58-7.18,6.35.04,6.12,11.66-.38,32.53-5.78,44.85-8.23,31.59-6.28,66.62-13.25,97.63-21.37,26.02-6.81,55.95-25.8,79.09-39.91,56.44-34.42,111.9-66.21,88.59-143.43Z"/>
      </g>
      <path class="cls-5" d="M263.15,401.17c-3.82-3.22-17.83-12.81-22.13-14.86-2.58-1.23-4.18-2.27-6.24.45-3.27,4.32-6.07,12.2-8.89,17.11-.48.83.32,1.71-1.61,1.19-8.17-4.4-17.71-13.6-25.89-17.13-1.06-.46-2.49-1.28-3.57-.65-1.39.81-14.57,26.66-14.96,28.61-.81,4.06.7,4.8,3.34,7.23,2.21,2.03,26.49,18.62,28.16,18.9,3.08.5,9.36-15.47,11.43-18.25.71-.94.93-1.6,2.34-1.63,4.56-.1,22.69,17.6,28.03,17.07,1.05-.1,1.32-.49,2-1.07,1.27-1.08,12.84-22.63,13.28-24.71,1.35-6.44-.74-8.42-5.29-12.26Z"/>
      <path class="cls-3" d="M60.67,456.15c-.03-.66.05-1.34,0-2-2-4.57-2.96-10.1-4-15-.13-.6.13-1.4,0-2-2.94-1.59-2.83-6.16-4-9-.15-.37-.72-1.45-1-2-.53-1.06-2.31-2.04-2-4-1.75-1.18-.08-2.47-4-1,.05,2.43-1.57,2.85-3,4-.36.29-.63.71-1,1,.3,2.52-2.18,2.99-3,4-.3.36-.71.64-1,1-2.44,3.02-3.78,6.03-7,9-.34.32-.62.71-1,1-.01,1.46-.6,2.52-2,3-.11.29-.7.7-1,1-6.04,9.71-11.45,18.61-14,30-.02.66,0,1.34,0,2,.14,10.78,2.12,16.02,4,26,.12.62-.12,1.38,0,2,3.16,4.26,4.92,11,3,16,1.27,1.37,1,1.21,2.54.05,4.02-3.02,8.12-8.61,10.46-13.05,2.31-4.37,3.89-9.32,5.49-14.01l4.51-19.99v17.5c0,2.73-5.19,15.9-3.99,17.5l6.99-4c1.05-1.26,2.45-2.31,3-3l1-2c1.13-1.15,1.45-1.77,3-3,3.32-6.61,6.46-13.38,7.75-20.76,1.26-7.24.61-13.04.25-20.24Z"/>
      <path class="cls-1" d="M216.67,229.15c4.79,3.74,4.69,4.27-1,3-.46-1.34.79-2.3,1-3Z"/>
      <path class="cls-1" d="M420.66,278.15c-23.11,2.54-51.43,7.26-69.49,23-6.66,5.81-21.04,23.81-20.51,32.99-.99.28-.91,1.16-1,2-.11.97.14,2.05,0,3-.25,1.7-1.96,4.33-.99,7,1.24-.4,2.19-1.97,2.99-3,.42-.54.58-1.52,1-2,3.06-3.51,11.16-10.43,15-13,2.9-1.93,9.72-5.86,13-5.5-8.78,7.46-17.28,14.94-25,23.5-.02.33.04.68,0,1-.06.46-.75,2.34-1,3h-2c-4.6,8.96-8.7,17.82-10,27.99l13.02-7.47c32.03-5.77,50.15-16.85,65.5-45.5,2.46-4.59,21.32-45.26,19.47-47.02Z"/>
      <path class="cls-4" d="M327.67,38.15c-1.83-8.44-3.02-18.8-5-28-.29-1.34-.75-2.64-1-4-.06-.33,1.44-7.27-1.49-5.99-5.58,5.42-12.88,9.93-16.51,16.99-.35.31-.65.69-1,1-.76.68-1.37,1.35-1.97,1.97l-1.03,1.03c-.35.32-.65.68-1,1l-1,1c-.35.32-.66.68-1,1-2.25,2.1-2.98,2.9-5,5-.67.69-1.32,1.25-2,2-2.85,3.16-4.57,3.43-7,8-.14.25.13.72,0,1-2.26-.12-3.47,2.13-4,4-.09.31.08.69,0,1-8.61,7.81-16.34,19.07-22.42,29.08-27.86,45.87-36.71,95.02-17.6,146.44.87,2.34,7.31,17.78,8.03,18.48,2.39,2.29,1.94-3.16,1.98-4,.07-1.12-.31-2.44,1-3-.04-.65-.03-1.35,0-2,.36-7.95,2.94-17.28,5-25,.08-.65-.02-1.34,0-2l1-1c.13-.95-.1-2.03,0-3l1-1c.06-.65-.08-1.35,0-2,.08-.64-.09-1.36,0-2,.05-.33-.04-.67,0-1l2-2c.04-.33-.05-.68,0-1,1.05-6.68,4.17-12.61,6-19,.09-.31-.09-.69,0-1l8-18c-.05.05-.18.07-.35.09.17-.02.3-.04.35-.09,1.04-.95,1.63-2.43,3-3v1c.04.66-.05,1.34,0,2-7.19,17.7-12.08,36.95-14,56-.07.66.06,1.34,0,2-.8,9.03-1.05,16.89-1,26,0,.67-.01,1.33,0,2,.02,1.42,1.08,4.86,1,8-.02.67.02,1.33,0,2l5,22c.07.65-.1,1.37,0,2l2,4c0,.33.01.67,0,1-.01.33-.07.76,0,1h1v1c.02.33-.03.67,0,1,2.37,1.58,2.03,4.98,3,7,.29.61.68,1.4,1,2,.75,1.43,3.1,2.68,3,5,.64.45,1.53,3.7,2.52,1.02,1.07-2.89,1.04-7.94,2.2-11.8,1.38-4.58,4.23-10.75,6.28-15.22,3.58-1.78,1.35-1.37,3.12-3.39,8.97-10.28,25.99-28.32,30.88-40.61,4.6-2.72,2.08-2.08,4.07-5.22,39.67-62.55,15.94-116.1,1.93-180.78ZM261.11,173.11c-.42.59-.7,1.27-.89,2,.2-.73.47-1.41.89-2,.28-.39.62-.74,1.04-1.04-.42.3-.76.65-1.04,1.04ZM270.55,152.8c.24-.19.5-.32.76-.39-.25.08-.51.2-.76.39ZM277.49,149.21c-.11-.09-.26-.16-.44-.21.18.05.33.12.44.21ZM277.63,149.36c.08.1.11.21.1.32,0-.11-.03-.22-.1-.32Z"/>
      <path class="cls-4" d="M216.67,227.15l-10.47-12.03c-1.74-2.23-4.43-3.28-6.53-4.97-.31-.25-.61-.68-1-1-1.14-.95-1.88-2.72-4-3-.34-.32-.66-.67-1-1-.63-.6-1.02-1.06-2-1-11.46-10.77-34.03-18.27-49-23-2.46-.78-10.31-2.29-11-4,3.66.04,7.39.53,11,1,7.79,1,15.22,2.56,22.76,4.74,10.16,2.93,19.31,7.85,29.23,11.26-1.69-8.24-8.14-13.95-12-20.99-.69-.24-1.32-.73-2-1-.14-.26.14-.75,0-1-.83-.73-2.3-1.27-3-2-.41-.43-.61-1.44-1-2-.75-.67-1.51-1.6-2-2-4.49-3.66-11.04-7.62-16-11-.84-.57-2.47.04-4-2l-2-1c-1.36-.04-1.77-.94-2-1-5.51-1.4-11.79-3.68-17-6-.66-.01-1.34.04-2,0-2.4-.16-6-.64-8-2-.66-.03-1.34.04-2,0-6.69-.35-14.5-1.96-21-2-.67,0-1.33,0-2,0-3.1.04-9.84.67-13.49,1.01-19.68,1.83-38.74,7.24-57.51,12.99l-.52,2.01c21.88,20.68,42.87,45.13,67.8,62.21,20.97,14.37,43.78,19.47,69.21,17.77,19.23-1.28,31.32-8.5,51.51-3.99-.46-1.34.79-2.3,1-3,.15-.5-.09-1.36,0-2Z"/>
      <path class="cls-2" d="M292.98,479.39c-37.88-54.23-94-15.34-88.19,40.13,3.58,34.19,40.22,26.75,63.41,28.59,11.06.88,35.77,9.93,29.71,24.78-.96,2.34-16.72,17.54-19.77,20.23-56.01,49.4-174.14,116.05-241.67,55.01-3.92-3.54-5.4-6.86-9.8-9.98-11.68-27.8-19.13-35.81-13.72-69.22,1.18-7.3,9.37-34.32,7.22-38.77-4.63-9.58-11.15,13.27-11.99,16-14.87,48.62-12.7,121.13,34.18,151.81,67.17,43.96,162.31-5.49,215.05-50.79,2.35-2.02,1.85-.37,4.26-4.02,56.65-37.27,70.48-107.69,31.31-163.75ZM233.16,495.14c11.08-9.29,30.93,2.95,36.51,14.01h-18.5c-1.16,0-8.14-.93-9.76-1.24-6.62-1.28-16.18-6.12-8.25-12.77Z"/>
    </g>
  </g>
</svg>